<?xml version="1.0" encoding="UTF-8"?>
<svg id="Layer_1" data-name="Layer 1" xmlns="http://www.w3.org/2000/svg" viewBox="0 0 1374.2 132.36">
  <path d="M461.57,40.02c-.82-.7-1.99-1.25-3.08-1.42-13.13-2.13-25.7-3.22-37.37-3.26-41.16-.11-58.67,12.68-60.09,13.78-14.42-.8-28.57-.09-44.34,2.49,13.18-12.25,16.89-33.16,17.08-34.29,.12-.69-.54-1.6-1.67-2.31-1.13-.71-2.57-1.09-3.54-.96-52.51,6.36-56.69,43.01-57.02,48.53-.57,.18-1.11,.33-1.69,.51h0s-.05,.01-.05,.01c-3.97,1.22-8.1,2.55-12.33,3.95l-1.43,.47s-.05,.03-.09,.04c-4.79,1.6-9.78,3.32-14.98,5.14,17.59-19.72,10.36-39.14,10-40.08-.29-.74-1.18-1.53-2.32-2.06-1.14-.53-2.36-.72-3.18-.48-45.78,13.04-40.98,47.12-39.64,53.52-9.31,1.58-19.82,2.32-31.02,2.42l-5.81-.02s-.05,.02-.08,.02c-.49,0-.99-.02-1.48-.03,28.98-14.4,25.67-36.51,25.5-37.53-.12-.7-.85-1.5-1.91-2.1-1.06-.61-2.27-.92-3.24-.82-52.61,5.32-54.85,31.97-54.61,38.4-9.33-.92-18.73-2.1-28.03-3.47-.01,0-.03-.01-.03-.01l-20.17-3.31c-1.88-.34-3.74-.68-5.59-1.03,51.02-11.46,39.47-42.47,38.93-43.84-.27-.68-1.03-1.39-2.04-1.92-1.01-.52-2.16-.79-2.99-.7-63.79,6.06-66.25,32.87-65.84,39.63-19.15-4.6-34.76-9.37-43.55-13.13-1.76-.75-3.46-.65-3.82,.24-.35,.88,.79,2.22,2.54,2.97,10.16,4.36,29.17,9.99,52.25,15.26,4.92,1.36,8.65,2.1,11.42,2.49,5.42,1.14,11.01,2.24,16.72,3.3,5.97,6.84,35.71,37.06,105.66,51.84,.35,.08,.68,.12,.99,.12,.59,0,1.06-.14,1.36-.4,.44-.4,.42-1.03-.09-1.71-.55-.75-13.6-17.67-72.82-44.32,6.22,.81,12.46,1.55,18.65,2.14,.35,.1,.7,.2,1.02,.22l12.08,.88c.35,.02,.7,.05,1.06,.07l6.92,.5c.1,.01,.19,.02,.29,.01,.24,0,.43-.05,.62-.09,3.84,.19,7.62,.31,11.35,.38,8.72,6.37,55.8,39.2,100.64,39.32h0c.85,0,1.71-.02,2.57-.03,.84-.02,1.42-.33,1.55-.84,.13-.52-.19-1.17-.85-1.79-1.11-1.02-26.11-23.65-73.41-37.78,3.7-.39,7.28-.87,10.69-1.47,.11-.02,.22-.02,.31-.04l.31-.09c5.8-1.06,11.17-2.43,15.91-4.18,11.16-4.13,21.37-7.72,30.91-10.92,9.31,7.28,42.96,30,101.1,30.57,.01,0,.02,0,.02,0,1.02,0,1.65-.4,1.68-1.04,.04-.65-.56-1.46-1.55-2.12-1.45-.95-33.85-22.18-79.22-34.29l22.44-6.06c.05-.01,.1-.04,.15-.05,6.98-1.62,13.54-2.88,19.87-3.83,3.42,.81,22.34,7.29,28.71,10.11,3.43,1.52,8.17,4.05,13.2,6.73,9.41,5.02,20.08,10.72,28.97,13.58,3.03,.97,5.94,1.63,8.51,2.2,8.39,1.88,16.25,2.85,23.34,2.87h1.63c.81-.03,1.37-.31,1.55-.77,.17-.47-.06-1.08-.64-1.68-.27-.28-23.6-24.01-63.84-35.04,1.31,.07,2.63,.19,3.94,.29l1.3,.22c16.57,3.57,31.51,5.4,44.41,5.44,39.92,.11,47.88-16.59,48.2-17.3,.24-.55-.1-1.32-.92-2.02h0Zm-274.99,10.29c-.37,7.43-4.33,24.87-32.02,35.2l-14.84-1.07c.46-7.45,5.5-28.4,46.87-34.12h0Zm-4.51,76.74c-58.49-13.43-84.68-37.18-92.21-45.3l16.2,2.66c49.02,21.03,69.07,36.32,76.02,42.64h0ZM326.37,19.16c-2.41,9.29-9.84,31.13-27.61,36.03-6.37,1.48-13.08,3.26-20.19,5.32,1.93-10.41,10.42-34.53,47.79-41.34Zm-80.7,16.34c1.37,7.95,1.58,26.49-20.58,42.88l-13.34,3.67c-1.14-9.77-.39-34.8,33.92-46.56h0ZM53.93,70.66c0-6.6,3.94-30.02,58.87-36.38,1.48,8.33,1.16,31.24-43.99,39.05-.25,.02-2.27,.15-7.17-.81-.83-.18-1.67-.36-2.49-.54-1.54-.35-3.22-.76-5.23-1.32h0Zm212.19,54.48c-37.54-.76-76.99-26.16-89.5-34.91l15.48,.04c40.19,10.39,65.53,28.2,74.01,34.87h0Zm85.14-26.68c-51.13-1.81-80.24-21.42-88.24-27.65l10.87-3.48c36.38,8.57,65.76,24.32,77.36,31.13h0Zm69.56-11.81c-5.88-.17-12.34-1.05-19.19-2.58-2.32-.52-4.94-1.11-7.43-1.91-7.73-2.49-17.82-7.87-26.72-12.62-5.26-2.81-10.22-5.46-14.12-7.18-2.94-1.3-12.87-5.03-21.21-7.83l13.31-1.28c41,5.22,67.3,26.12,75.37,33.4h0Zm-9.64-31.52c-11.65-.03-25.09-1.62-40.18-4.74-.09-.04-.19-.08-.28-.12,7.17-3.83,24.21-10.77,53.53-10.7,9.48,.03,19.59,.78,30.11,2.25-3.92,4.51-15.17,13.39-43.18,13.31h0Z"/>
  <path d="M666.38,21.53c-.65-.56-1.58-.99-2.45-1.13-10.43-1.69-20.41-2.56-29.68-2.59-32.69-.09-46.61,10.08-47.73,10.95-11.45-.64-22.69-.07-35.22,1.98,10.47-9.73,13.41-26.34,13.56-27.24,.09-.55-.43-1.27-1.32-1.83-.9-.57-2.04-.87-2.81-.77-41.71,5.05-45.03,34.17-45.29,38.55-.45,.14-.88,.26-1.34,.41h0s-.04,.01-.04,.01c-3.15,.97-6.43,2.03-9.79,3.14l-1.14,.37s-.04,.03-.07,.03c-3.8,1.27-7.77,2.63-11.9,4.08,13.97-15.66,8.23-31.09,7.94-31.84-.23-.59-.94-1.21-1.85-1.64-.91-.42-1.87-.57-2.52-.38-36.36,10.35-32.55,37.42-31.49,42.51-7.4,1.25-15.75,1.84-24.64,1.92h-4.62s-.04,0-.07,0c-.39,0-.78-.01-1.17-.02,.45-.22,.86-.45,1.29-.68-.51,.06-1.02,.1-1.52,.11-2.9,.08-5.82,.14-8.55-.38-.47,.19-.95,.38-1.44,.56l-9.85-.71c-2.3,.64-4.99,.11-7.25-.31-.38-.07-.72-.2-1.04-.36-5.66-.57-11.35-1.26-17.01-2.05-2.37,.16-4.75,.4-7.12,.68,1.82,.55,3.58,1.12,5.26,1.59,4.4,.2,8.78,.68,13.17,1.38,4.01,.64,8.19,.76,12.14,1.72,.61,.15,1.2,.33,1.79,.53l6.15,.45c.28,.02,.56,.04,.84,.06l5.49,.4c.08,0,.15,.01,.23,0,.19,0,.34-.04,.49-.07,3.05,.15,6.05,.25,9.02,.3,6.92,5.06,44.32,31.13,79.94,31.23h0c.67,0,1.36-.01,2.04-.03,.67-.01,1.12-.26,1.23-.66,.1-.41-.15-.93-.68-1.42-.88-.81-20.74-18.79-58.31-30.01,2.94-.31,5.79-.69,8.49-1.17,.09-.01,.17-.01,.25-.03l.25-.07c4.61-.84,8.87-1.93,12.64-3.32,8.87-3.28,16.97-6.13,24.55-8.68,7.4,5.78,34.12,23.83,80.31,24.28,.01,0,.02,0,.02,0,.81,0,1.31-.32,1.34-.83,.03-.51-.45-1.16-1.23-1.68-1.15-.76-26.88-17.61-62.93-27.24l17.82-4.81s.08-.03,.12-.04c5.55-1.28,10.75-2.28,15.78-3.05,2.72,.64,17.74,5.79,22.81,8.03,2.72,1.2,6.49,3.21,10.49,5.35,7.47,3.99,15.95,8.51,23.01,10.78,2.41,.77,4.72,1.29,6.76,1.75,6.66,1.49,12.91,2.26,18.54,2.28h1.29c.64-.02,1.09-.24,1.23-.61,.14-.37-.05-.86-.51-1.34-.21-.22-18.75-19.07-50.71-27.83,1.04,.06,2.09,.15,3.13,.23l1.03,.17c13.16,2.84,25.03,4.29,35.28,4.32,31.71,.09,38.03-13.18,38.28-13.74,.19-.44-.08-1.05-.73-1.61Zm-155.25,67.61h0c-29.82-.6-61.15-20.78-71.09-27.73l12.3,.03c31.92,8.25,52.05,22.4,58.79,27.7Zm-32.58-37.13l-10.6,2.92c-.9-7.76-.31-27.64,26.95-36.98h0c1.09,6.32,1.25,21.04-16.35,34.06Zm100.21,15.94h0c-40.61-1.44-63.73-17.01-70.09-21.96l8.64-2.77c28.9,6.8,52.23,19.32,61.45,24.73Zm-41.69-34.37c-5.06,1.18-10.39,2.59-16.04,4.22,1.53-8.27,8.28-27.42,37.96-32.84-1.91,7.38-7.82,24.73-21.93,28.62Zm96.94,24.99c-4.67-.14-9.8-.83-15.25-2.05-1.84-.41-3.92-.88-5.9-1.52-6.14-1.98-14.15-6.25-21.23-10.02-4.18-2.23-8.12-4.34-11.21-5.7-2.34-1.03-10.22-3.99-16.85-6.22l10.57-1.01c32.57,4.15,53.46,20.75,59.87,26.53Zm-7.66-25.03h0c-9.25-.02-19.93-1.28-31.92-3.77-.07-.03-.15-.07-.22-.1,5.69-3.04,19.23-8.56,42.52-8.5,7.53,.02,15.56,.62,23.92,1.79-3.11,3.59-12.05,10.63-34.3,10.57Z"/>
  <path d="M885.33,39.13c-.87,.71-1.24,1.47-.98,2.02,.34,.71,8.77,17.41,51.05,17.3,13.67-.03,29.49-1.86,47.04-5.44l1.38-.22c1.38-.1,2.79-.22,4.17-.29-42.62,11.02-67.34,34.76-67.62,35.04-.61,.6-.86,1.21-.68,1.68,.19,.47,.78,.75,1.64,.76h1.72c7.51,0,15.83-.98,24.72-2.86,2.72-.58,5.81-1.23,9.01-2.2,9.42-2.86,20.72-8.55,30.69-13.58,5.33-2.69,10.35-5.22,13.98-6.73,6.75-2.82,26.79-9.3,30.41-10.11,6.7,.96,13.64,2.22,21.04,3.83,.05,.02,.1,.04,.16,.05l23.77,6.06c-48.06,12.12-82.37,33.34-83.91,34.29-1.05,.66-1.68,1.47-1.65,2.12,.04,.64,.7,1.04,1.78,1.04,0,0,0,0,.02,0,61.58-.56,97.22-23.29,107.08-30.57,10.1,3.2,20.91,6.79,32.73,10.92,5.02,1.75,10.71,3.12,16.86,4.18l.33,.09c.1,.02,.22,.02,.33,.04,3.61,.6,7.41,1.08,11.33,1.47-50.1,14.13-76.57,36.76-77.75,37.78-.71,.62-1.04,1.27-.91,1.79,.15,.51,.76,.82,1.65,.84,.91,.02,1.82,.03,2.72,.03h0c47.5-.12,97.36-32.95,106.59-39.31,3.95-.06,7.96-.19,12.02-.38,.2,.04,.4,.1,.66,.09,.1,0,.2,0,.3-.01l7.32-.5c.38-.02,.75-.05,1.12-.07l12.79-.88c.34-.02,.71-.13,1.08-.22,6.56-.59,13.17-1.34,19.76-2.14-62.72,26.65-76.54,43.57-77.12,44.32-.54,.67-.57,1.3-.09,1.71,.32,.26,.82,.4,1.44,.4,.32,0,.68-.04,1.05-.12,74.09-14.79,105.59-45.01,111.91-51.84,6.04-1.05,11.96-2.16,17.7-3.3,2.94-.4,6.88-1.13,12.1-2.49,24.45-5.26,44.58-10.9,55.35-15.26,1.86-.75,3.07-2.09,2.69-2.97-.38-.89-2.18-1-4.04-.24-9.31,3.77-25.84,8.53-46.13,13.13,.44-6.75-2.16-33.57-69.73-39.63-.88-.09-2.1,.18-3.17,.7-1.07,.53-1.88,1.24-2.16,1.92-.57,1.37-12.81,32.37,41.23,43.84-1.96,.34-3.94,.69-5.92,1.03l-21.36,3.31s-.02,0-.03,.01c-9.84,1.38-19.81,2.55-29.69,3.47,.25-6.43-2.13-33.08-57.84-38.4-1.03-.1-2.3,.22-3.43,.82-1.12,.6-1.89,1.4-2.02,2.1-.18,1.02-3.69,23.13,27.01,37.53-.52,0-1.04,.02-1.56,.03-.04,0-.05-.02-.09-.02l-6.16,.02c-11.86-.1-22.99-.84-32.86-2.42,1.42-6.41,6.5-40.49-41.99-53.52-.87-.23-2.16-.05-3.37,.48-1.21,.53-2.15,1.32-2.46,2.06-.39,.94-8.04,20.36,10.59,40.08-5.5-1.82-10.79-3.54-15.86-5.14-.04,0-.05-.03-.09-.04l-1.52-.47c-4.48-1.4-8.85-2.73-13.06-3.95h-.05s0-.01,0-.01c-.61-.18-1.18-.33-1.79-.51-.35-5.52-4.78-42.17-60.39-48.53-1.02-.13-2.55,.25-3.75,.96-1.2,.71-1.89,1.62-1.77,2.31,.2,1.13,4.13,22.05,18.09,34.29-16.7-2.58-31.69-3.29-46.96-2.49-1.5-1.1-20.05-13.89-63.65-13.78-12.36,.03-25.67,1.13-39.58,3.26-1.16,.17-2.4,.72-3.27,1.42h0Zm291.25,10.29c43.81,5.72,49.15,26.68,49.64,34.12l-15.72,1.07c-29.34-10.32-33.53-27.77-33.92-35.2h0Zm4.77,76.74c7.36-6.32,28.59-21.61,80.52-42.64l17.15-2.66c-7.98,8.12-35.72,31.87-97.67,45.3h0Zm-102.2-66.55c-7.53-2.06-14.64-3.83-21.38-5.32-18.82-4.9-26.69-26.74-29.24-36.03,39.59,6.82,48.58,30.93,50.62,41.34Zm34.85-25c36.35,11.76,37.13,36.78,35.93,46.56l-14.13-3.67c-23.47-16.39-23.25-34.93-21.8-42.88h0Zm203.09,35.15c-2.12,.56-3.91,.97-5.53,1.32-.87,.18-1.76,.36-2.64,.54-5.19,.96-7.32,.82-7.59,.81-47.82-7.81-48.16-30.72-46.6-39.05,58.18,6.36,62.36,29.78,62.35,36.38h0Zm-224.74,54.48c8.99-6.67,35.82-24.48,78.39-34.87l16.4-.04c-13.25,8.75-55.03,34.16-94.79,34.91h0Zm-90.17-26.68c12.29-6.81,43.4-22.56,81.94-31.13l11.52,3.48c-8.48,6.23-39.3,25.83-93.46,27.65h0Zm-73.68-11.81c8.54-7.28,36.4-28.17,79.83-33.4l14.09,1.28c-8.84,2.8-19.35,6.53-22.47,7.83-4.13,1.72-9.38,4.37-14.95,7.18-9.43,4.75-20.12,10.13-28.3,12.62-2.64,.8-5.41,1.39-7.87,1.91-7.26,1.54-14.1,2.41-20.33,2.58h0Zm10.21-31.52c-29.67,.07-41.59-8.8-45.74-13.31,11.14-1.46,21.85-2.22,31.89-2.25,31.06-.08,49.11,6.87,56.7,10.7-.09,.04-.19,.08-.29,.12-15.98,3.13-30.22,4.71-42.56,4.74h0Z"/>
  <path d="M667.63,22.25c.27,.57,6.96,13.83,40.55,13.74,10.86-.03,23.43-1.48,37.36-4.32l1.1-.17c1.1-.08,2.22-.17,3.31-.23-33.85,8.76-53.49,27.61-53.71,27.83-.49,.48-.68,.96-.54,1.34,.15,.37,.62,.59,1.3,.61h1.37c5.96,0,12.57-.78,19.63-2.27,2.16-.46,4.61-.98,7.16-1.75,7.48-2.27,16.46-6.79,24.38-10.78,4.23-2.13,8.22-4.14,11.11-5.35,5.36-2.24,21.28-7.38,24.16-8.03,5.32,.76,10.84,1.76,16.71,3.05,.04,.02,.08,.03,.13,.04l18.88,4.81c-38.17,9.63-65.43,26.48-66.65,27.24-.83,.52-1.34,1.17-1.31,1.68,.03,.51,.56,.83,1.42,.83,0,0,0,0,.02,0,48.92-.45,77.22-18.5,85.06-24.28,8.02,2.54,16.61,5.39,26,8.68,3.99,1.39,8.51,2.48,13.39,3.32l.26,.07c.08,.02,.17,.02,.26,.03,2.87,.47,5.88,.86,9,1.17-39.79,11.22-60.82,29.2-61.76,30.01-.56,.49-.83,1.01-.72,1.42,.12,.4,.6,.65,1.31,.66,.72,.01,1.45,.02,2.16,.02h0c37.73-.09,77.34-26.17,84.67-31.23,3.14-.05,6.32-.15,9.55-.3,.16,.03,.32,.08,.52,.07,.08,0,.16,0,.24,0l5.82-.4c.3-.02,.59-.04,.89-.06l6.51-.45c.62-.2,1.25-.39,1.9-.53,4.19-.96,8.61-1.08,12.86-1.72,4.66-.7,9.3-1.18,13.95-1.38,1.77-.47,3.65-1.03,5.57-1.59-2.5-.28-5.03-.52-7.54-.68-5.99,.79-12.02,1.48-18.02,2.05-.34,.16-.7,.29-1.1,.36-2.39,.41-5.24,.95-7.68,.31l-10.43,.71c-.52-.18-1.03-.37-1.53-.56-2.89,.52-5.99,.47-9.06,.38-.53-.01-1.07-.06-1.61-.11,.45,.23,.89,.45,1.36,.68-.41,0-.83,.02-1.24,.02-.03,0-.04-.02-.07-.02h-4.89c-9.42-.07-18.27-.65-26.1-1.91,1.13-5.09,5.16-32.16-33.35-42.51-.69-.18-1.71-.04-2.67,.38-.96,.42-1.71,1.05-1.95,1.64-.31,.75-6.39,16.18,8.41,31.84-4.37-1.45-8.57-2.81-12.6-4.08-.03,0-.04-.03-.07-.03l-1.21-.37c-3.56-1.11-7.03-2.16-10.37-3.14h-.04s0-.01,0-.01c-.48-.14-.94-.26-1.42-.41-.28-4.38-3.8-33.5-47.97-38.55-.81-.1-2.03,.2-2.98,.77-.95,.56-1.5,1.29-1.4,1.83,.16,.9,3.28,17.51,14.37,27.24-13.27-2.05-25.17-2.61-37.3-1.98-1.19-.87-15.93-11.03-50.56-10.95-9.82,.02-20.39,.9-31.44,2.59-.92,.14-1.91,.57-2.59,1.13-.69,.56-.98,1.17-.78,1.61Zm227.48,38.3l13.03-.03c-10.52,6.95-43.71,27.13-75.29,27.73h0c7.14-5.3,28.46-19.45,62.27-27.7Zm-45.07-43.5h0c28.87,9.34,29.5,29.22,28.54,36.98l-11.23-2.92c-18.64-13.02-18.47-27.75-17.31-34.06Zm-23.74,25.27l9.15,2.77c-6.73,4.95-31.22,20.52-74.23,21.96h0c9.76-5.41,34.48-17.92,65.08-24.73Zm-44.15-38.26c31.44,5.41,38.59,24.57,40.21,32.84-5.98-1.64-11.63-3.05-16.99-4.22-14.95-3.89-21.2-21.24-23.22-28.62Zm-16.05,27.08l11.2,1.01c-7.02,2.23-15.37,5.19-17.85,6.22-3.28,1.37-7.45,3.47-11.88,5.7-7.49,3.77-15.98,8.05-22.48,10.02-2.09,.63-4.3,1.1-6.25,1.52-5.76,1.22-11.2,1.91-16.15,2.05,6.79-5.78,28.91-22.38,63.41-26.53Zm-91.63-9.08c8.85-1.16,17.36-1.77,25.33-1.79,24.67-.06,39.01,5.46,45.04,8.5-.07,.03-.15,.06-.23,.1-12.7,2.48-24.01,3.74-33.8,3.77h0c-23.57,.06-33.03-6.99-36.33-10.57Z"/>
</svg>